# xmcd
#
# Track frame offsets: 
#        182
#        23807
#        43982
#        63632
#        86132
#        103007
#        117707
#        121457
#        145307
#        165707
#        185507
#        208232
#        225332
#
# Disc length: 3197 seconds
#
# Revision: 1
# Processed by: cddbd v1.5.2PL0 Copyright (c) Steve Scherf et al.
# Submitted via: ExactAudioCopy v0.95b3
#
DISCID=c40c7b0d
DTITLE=Various Artist - Blues - Standards and originals
DYEAR=1988
DGENRE=Blues
TTITLE0=Blue Monk - Listening Version (Thelonious Monk)
TTITLE1=Minor Incident - Listening Version (Bill Dobbins)
TTITLE2=All Blues - Listening Version (Miles Davis)
TTITLE3=Alto Blues - Listening Version (Bobby Watson)
TTITLE4=Blues for Barry - Listening Version (Bill Dobbins)
TTITLE5=Blues for Bud - Listening Version (Bill Dobbins)
TTITLE6=Tuning note Bb
TTITLE7=Blue Monk - Playalong (Thelonious Monk)
TTITLE8=Minor Incident - Playalong (Bill Dobbins)
TTITLE9=All Blues - Playalong (Miles Davis)
TTITLE10=Alto Blues - Playalong (Bobby Watson)
TTITLE11=Blues for Barry - Playalong (Bill Dobbins)
TTITLE12=Blues for Bud - Playalong (Bill Dobbins)
EXTD=
EXTT0=
EXTT1=
EXTT2=
EXTT3=
EXTT4=
EXTT5=
EXTT6=
EXTT7=
EXTT8=
EXTT9=
EXTT10=
EXTT11=
EXTT12=
PLAYORDER=
